<?xml version="1.0" standalone="no"?><!DOCTYPE svg PUBLIC "-//W3C//DTD SVG 1.1//EN" "http://www.w3.org/Graphics/SVG/1.1/DTD/svg11.dtd"><svg t="1718697548777" class="icon" viewBox="0 0 1024 1024" version="1.1" xmlns="http://www.w3.org/2000/svg" p-id="8645" xmlns:xlink="http://www.w3.org/1999/xlink" width="200" height="200"><path d="M0 0m96 0l832 0q96 0 96 96l0 832q0 96-96 96l-832 0q-96 0-96-96l0-832q0-96 96-96Z" fill="#35BD4C" p-id="8646"></path><path d="M512 232a280 280 0 1 1 0 560 280 280 0 0 1 0-560z m84.352 124.416a90.656 90.656 0 0 0-108.352 88.928v133.312l-0.32 5.056a42.656 42.656 0 1 1-42.336-47.712 24 24 0 1 0 0-48 90.656 90.656 0 1 0 90.656 90.656v-133.312l0.32-5.056a42.656 42.656 0 1 1 42.336 47.712l-3.872 0.32a24 24 0 0 0 3.872 47.68 90.656 90.656 0 0 0 17.696-179.584z" fill="#FFFFFF" p-id="8647"></path></svg>